<?xml version="1.0" encoding="UTF-8" standalone="no"?><!-- Generator: Gravit.io --><svg xmlns="http://www.w3.org/2000/svg" xmlns:xlink="http://www.w3.org/1999/xlink" style="isolation:isolate" viewBox="0 0 1024 1024" width="1024pt" height="1024pt"><defs><clipPath id="_clipPath_Kv4DgjaqTXYITV79zOxVLxDuUTJO2k9m"><rect width="1024" height="1024"/></clipPath></defs><g clip-path="url(#_clipPath_Kv4DgjaqTXYITV79zOxVLxDuUTJO2k9m)"><linearGradient id="_lgradient_1" x1="0" y1="0.5" x2="6.123233995736766e-17" y2="1.5" gradientTransform="matrix(1024,0,0,1024,0,0)" gradientUnits="userSpaceOnUse"><stop offset="0%" stop-opacity="1" style="stop-color:rgb(72,10,53)"/><stop offset="100%" stop-opacity="1" style="stop-color:rgb(203,14,145)"/></linearGradient><path d=" M 0 0 L 1024 0 L 1024 1024 L 0 1024 L 0 0 Z " fill-rule="evenodd" fill="url(#_lgradient_1)"/><path d=" M 554.064 254.83 C 558.292 244.626 569.992 239.78 580.196 244.006 L 654.106 274.622 C 664.312 278.848 669.158 290.548 664.93 300.752 C 660.704 310.958 649.004 315.804 638.8 311.576 L 620.32 303.922 L 604.632 341.802 C 639.172 360.414 667.476 388.776 686.018 423.354 L 724.092 407.736 L 716.408 389.184 C 712.228 379.008 717.05 367.37 727.2 363.13 C 732.118 361.07 737.656 361.058 742.582 363.098 C 747.51 365.138 751.418 369.062 753.438 373.998 L 784.886 448.07 C 787.646 454.666 786.676 462.232 782.344 467.92 C 778.012 473.608 770.974 476.552 763.884 475.644 C 756.79 474.736 750.724 470.112 747.964 463.518 L 740.278 444.964 L 702.312 460.844 C 713.652 498.404 713.692 538.474 702.43 576.06 L 739.384 591.366 L 747.038 572.888 C 751.266 562.684 762.964 557.838 773.17 562.064 C 783.374 566.292 788.22 577.992 783.994 588.196 L 753.378 662.106 C 749.152 672.312 737.452 677.158 727.248 672.93 C 717.042 668.704 712.196 657.004 716.424 646.8 L 724.078 628.32 L 687.122 613.014 C 668.246 647.942 639.402 676.462 604.262 694.942 L 619.882 733.016 L 638.434 725.332 C 648.608 721.152 660.248 725.974 664.488 736.124 C 666.548 741.042 666.56 746.58 664.518 751.506 C 662.478 756.434 658.554 760.342 653.618 762.362 L 579.93 792.886 C 575.01 794.98 569.46 795.02 564.514 792.994 C 556.988 789.928 552.066 782.614 552.06 774.49 C 552.054 766.364 556.962 759.042 564.482 755.964 L 583.036 748.278 L 567.156 710.312 C 529.596 721.652 489.526 721.692 451.94 710.43 L 436.634 747.384 L 455.112 755.038 C 465.316 759.266 470.162 770.964 465.936 781.17 C 461.708 791.374 450.008 796.22 439.804 791.994 L 365.894 761.378 C 355.688 757.152 350.842 745.452 355.07 735.248 C 359.296 725.042 370.996 720.196 381.2 724.424 L 399.68 732.078 L 414.986 695.122 C 380.454 676.202 352.276 647.512 333.982 612.646 L 295.908 628.264 L 303.592 646.816 C 306.732 654.31 305.026 662.96 299.276 668.7 C 293.526 674.44 284.874 676.132 277.386 672.98 C 272.456 670.914 268.558 666.96 266.562 662.002 L 236.038 588.312 C 233.978 583.392 233.966 577.856 236.008 572.928 C 238.048 568.002 241.972 564.094 246.908 562.074 C 257.082 557.894 268.72 562.714 272.96 572.866 L 280.646 591.418 L 318.612 575.538 C 307.272 537.978 307.232 497.908 318.494 460.324 L 280.614 444.634 L 272.962 463.112 C 268.734 473.316 257.036 478.162 246.83 473.936 C 236.626 469.708 231.78 458.008 236.006 447.804 L 266.622 373.894 C 270.848 363.688 282.548 358.842 292.752 363.07 C 302.958 367.296 307.804 378.996 303.576 389.2 L 295.922 407.68 L 333.802 423.368 C 352.414 388.828 380.776 360.524 415.354 341.982 L 399.736 303.908 L 381.184 311.592 C 370.958 315.786 359.27 310.896 355.076 300.67 C 350.882 290.444 355.772 278.756 365.998 274.562 L 439.688 244.038 C 444.608 241.978 450.144 241.966 455.072 244.008 C 459.998 246.048 463.906 249.972 465.926 254.908 C 470.106 265.082 465.286 276.72 455.134 280.96 L 436.582 288.646 L 452.462 326.612 C 490.022 315.272 530.092 315.232 567.676 326.494 L 583.366 288.614 L 564.888 280.962 C 554.684 276.734 549.838 265.036 554.064 254.83 L 554.064 254.83 Z  M 571.23 370.18 C 489.59 336.364 395.996 375.132 362.18 456.77 C 328.364 538.41 367.132 632.004 448.77 665.82 C 487.976 682.06 532.024 682.06 571.23 665.82 C 610.434 649.58 641.582 618.434 657.82 579.23 C 691.636 497.59 652.868 403.996 571.23 370.18 L 571.23 370.18 Z  M 560 498 C 598.66 498 630 529.34 630 568 C 630 606.66 598.66 638 560 638 C 521.34 638 490 606.66 490 568 C 490 529.34 521.34 498 560 498 Z  M 560 538 C 543.432 538 530 551.432 530 568 C 530 584.568 543.432 598 560 598 C 576.568 598 590 584.568 590 568 C 590 551.432 576.568 538 560 538 Z  M 420 498 C 433.26 498 445.98 503.268 455.356 512.644 C 464.732 522.022 470 534.74 470 548 C 470 575.614 447.614 598 420 598 C 392.386 598 370 575.614 370 548 C 370 520.386 392.386 498 420 498 Z  M 420 538 C 414.478 538 410 542.478 410 548 C 410 553.522 414.478 558 420 558 C 425.522 558 430 553.522 430 548 C 430 542.478 425.522 538 420 538 Z  M 510 378 C 543.138 378 570 404.862 570 438 C 570 471.138 543.138 498 510 498 C 476.862 498 450 471.138 450 438 C 450 404.862 476.862 378 510 378 Z  M 510 418 C 498.954 418 490 426.954 490 438 C 490 449.046 498.954 458 510 458 C 521.046 458 530 449.046 530 438 C 530 426.954 521.046 418 510 418 Z " fill="rgb(255,255,255)"/></g></svg>